<?xml version="1.0" encoding="utf-8"?>
<!-- Generator: Adobe Illustrator 24.3.0, SVG Export Plug-In . SVG Version: 6.00 Build 0)  -->
<svg version="1.1" id="Layer_1" xmlns="http://www.w3.org/2000/svg" xmlns:xlink="http://www.w3.org/1999/xlink" x="0px" y="0px"
	 viewBox="0 0 2000 2000" style="enable-background:new 0 0 2000 2000;" xml:space="preserve">
<style type="text/css">
	.st0{fill:#3572FF;}
	.st1{fill:#FFFFFF;}
</style>
<circle class="st0" cx="1000" cy="1000" r="987.2"/>
<rect class="st0" width="2000" height="2000"/>
<g>
	<polygon class="st1" points="-805.6,647.4 -1116.4,647.4 -1308.6,962.3 -1461.9,1213.4 -1307.2,1465.7 -1205.4,1631.8 
		-898.2,1631.8 -1153.6,1215.2 	"/>
	<polygon class="st1" points="-945.9,368.2 -1304.4,368.2 -1475.6,647.4 -1116.4,647.4 	"/>
	<polygon class="st1" points="-1488.7,668.7 -1475.6,647.4 -1782.8,647.4 -1795.9,668.7 -1949.5,919.2 -1795.9,1169.8 
		-1615.2,1464.4 -1461.9,1213.4 -1642.3,919.2 	"/>
</g>
<g>
	<path class="st1" d="M1172.7,1576.7c-54.7,16.3-112.7,25.2-172.7,25.2c-134.4,0-258.5-44-358.7-118.5
		c-40-29.8-76.2-64.3-107.8-102.9c-19.3-23.5-36.7-48.6-52.2-74.9c-27-45.8-48.2-95.6-62.5-148.1c-13.5-50.2-20.8-102.9-20.8-157.4
		c0-59.1,8.5-116.2,24.4-170.2c15.2-51.7,37.2-100.6,65-145.6c14.7-23.9,31-46.6,48.8-67.9c31.8-38.4,68.3-72.7,108.5-102.2
		c99.6-72.9,222.4-116,355.2-116c55.4,0,109,7.5,159.9,21.5l-305,303.7L749.3,828.3l-58.5,58.3L585.3,991.8l105.6,105.2l63.7,63.4
		l105.6,105.2l42.4,42.2h211.1l-147.9-147.4l-105.6-105.1l-63.8-63.5l58.5-58.3l105.6-105.2l347.3-345.8l102-101.5
		c-43.3-28.7-89.7-52.9-138.7-72.2c-84-32.9-175.4-51.1-271.1-51.1c-171.8,0-329.9,58.4-455.6,156.3
		c-39.3,30.7-75.5,65.1-107.9,102.9c-18,21.1-35,43.1-50.7,66.1c-29,42.7-53.8,88.6-73.5,137c-35.2,86.4-54.6,180.8-54.6,279.8
		c0,94.5,17.7,185,49.9,268.1c19,49,43.1,95.6,71.6,138.9c16.6,25.4,34.8,49.7,54.4,72.7c32.2,37.9,68.1,72.6,107.3,103.4
		c126.3,99.5,285.7,158.9,459,158.9c100.2,0,195.6-19.8,282.8-55.8c48.4-19.9,94.2-44.8,136.7-74.1l-101.5-101
		C1273.2,1539,1224.4,1561.2,1172.7,1576.7z"/>
	<path class="st1" d="M1585.3,543.5c-30.7-39.3-65.2-75.3-103-107.7l-99.8,99.3c38.4,31.7,72.9,68,102.5,108.2
		c73.5,99.8,117,223.1,117,356.6c0,132-42.5,253.9-114.4,353.1l-357.7-356.1l285.4-284.2h-211.1l-179.8,179.1L918.7,997l105.6,105.1
		l361.4,360l99.7,99.3c37.6-32.5,72-68.8,102.4-108.3c96.8-125.3,154.3-282.5,154.3-453.1C1742.1,827.9,1683.6,669.4,1585.3,543.5z"
		/>
</g>
</svg>
